<?xml version="1.0" encoding="UTF-8" standalone="no"?>
<!DOCTYPE svg PUBLIC "-//W3C//DTD SVG 1.1//EN"
 "http://www.w3.org/Graphics/SVG/1.1/DTD/svg11.dtd">
<!-- Generated by graphviz version 2.40.1 (20161225.0304)
 -->
<!-- Title: dependencies Pages: 1 -->
<svg width="504pt" height="211pt"
 viewBox="0.00 0.00 504.00 211.00" xmlns="http://www.w3.org/2000/svg" xmlns:xlink="http://www.w3.org/1999/xlink">
<g id="graph0" class="graph" transform="scale(1 1) rotate(0) translate(4 207)">
<title>dependencies</title>
<polygon fill="#ffffff" stroke="transparent" points="-4,4 -4,-207 500,-207 500,4 -4,4"/>
<text text-anchor="start" x="227.0091" y="-42.4" font-family="sans-serif" font-weight="bold" font-size="14.00" fill="#000000">Legend</text>
<polygon fill="#ffffb3" stroke="transparent" points="14,-10 14,-30 34,-30 34,-10 14,-10"/>
<text text-anchor="start" x="37.629" y="-15.4" font-family="sans-serif" font-size="14.00" fill="#000000"> &#160;Declarations</text>
<polygon fill="#8dd3c7" stroke="transparent" points="127,-10 127,-30 147,-30 147,-10 127,-10"/>
<text text-anchor="start" x="150.7251" y="-15.4" font-family="sans-serif" font-size="14.00" fill="#000000"> &#160;Module</text>
<polygon fill="#80b1d3" stroke="transparent" points="213,-10 213,-30 233,-30 233,-10 213,-10"/>
<text text-anchor="start" x="236.7812" y="-15.4" font-family="sans-serif" font-size="14.00" fill="#000000"> &#160;Bootstrap</text>
<polygon fill="#fdb462" stroke="transparent" points="310,-10 310,-30 330,-30 330,-10 310,-10"/>
<text text-anchor="start" x="333.6732" y="-15.4" font-family="sans-serif" font-size="14.00" fill="#000000"> &#160;Providers</text>
<polygon fill="#fb8072" stroke="transparent" points="406,-10 406,-30 426,-30 426,-10 406,-10"/>
<text text-anchor="start" x="429.7258" y="-15.4" font-family="sans-serif" font-size="14.00" fill="#000000"> &#160;Exports</text>
<g id="clust1" class="cluster">
<title>cluster_TodoModule</title>
<polygon fill="none" stroke="#000000" stroke-dasharray="1,5" points="105,-70 105,-195 391,-195 391,-70 105,-70"/>
</g>
<g id="clust3" class="cluster">
<title>cluster_TodoModule_imports</title>
<polygon fill="none" stroke="#000000" points="257,-78 257,-130 383,-130 383,-78 257,-78"/>
</g>
<g id="clust6" class="cluster">
<title>cluster_TodoModule_providers</title>
<polygon fill="none" stroke="#000000" points="113,-78 113,-130 249,-130 249,-78 113,-78"/>
</g>
<!-- DatabaseModule -->
<g id="node1" class="node">
<title>DatabaseModule</title>
<polygon fill="#8dd3c7" stroke="#000000" points="375.3501,-122 372.3501,-126 351.3501,-126 348.3501,-122 264.6499,-122 264.6499,-86 375.3501,-86 375.3501,-122"/>
<text text-anchor="middle" x="320" y="-99.8" font-family="Times,serif" font-size="14.00" fill="#000000">DatabaseModule</text>
</g>
<!-- TodoModule -->
<g id="node2" class="node">
<title>TodoModule</title>
<polygon fill="#8dd3c7" stroke="#000000" points="294.6025,-187 291.6025,-191 270.6025,-191 267.6025,-187 205.3975,-187 205.3975,-151 294.6025,-151 294.6025,-187"/>
<text text-anchor="middle" x="250" y="-164.8" font-family="Times,serif" font-size="14.00" fill="#000000">TodoModule</text>
</g>
<!-- DatabaseModule&#45;&gt;TodoModule -->
<g id="edge1" class="edge">
<title>DatabaseModule&#45;&gt;TodoModule</title>
<path fill="none" stroke="#000000" d="M279.5631,-122.1061C279.5631,-122.1061 279.5631,-140.991 279.5631,-140.991"/>
<polygon fill="#000000" stroke="#000000" points="276.0632,-140.9909 279.5631,-150.991 283.0632,-140.991 276.0632,-140.9909"/>
</g>
<!-- TodoService -->
<g id="node3" class="node">
<title>TodoService</title>
<ellipse fill="#fdb462" stroke="#000000" cx="181" cy="-104" rx="60.2537" ry="18"/>
<text text-anchor="middle" x="181" y="-99.8" font-family="Times,serif" font-size="14.00" fill="#000000">TodoService</text>
</g>
<!-- TodoService&#45;&gt;TodoModule -->
<g id="edge2" class="edge">
<title>TodoService&#45;&gt;TodoModule</title>
<path fill="none" stroke="#000000" d="M223.4128,-116.8419C223.4128,-116.8419 223.4128,-140.5231 223.4128,-140.5231"/>
<polygon fill="#000000" stroke="#000000" points="219.9129,-140.523 223.4128,-150.5231 226.9129,-140.5231 219.9129,-140.523"/>
</g>
</g>
</svg>
