<?xml version="1.0" encoding="UTF-8" standalone="no"?>
<!DOCTYPE svg PUBLIC "-//W3C//DTD SVG 1.1//EN"
 "http://www.w3.org/Graphics/SVG/1.1/DTD/svg11.dtd">
<!-- Generated by graphviz version 2.40.1 (20161225.0304)
 -->
<!-- Title: dependencies Pages: 1 -->
<svg width="504pt" height="298pt"
 viewBox="0.00 0.00 504.00 298.00" xmlns="http://www.w3.org/2000/svg" xmlns:xlink="http://www.w3.org/1999/xlink">
<g id="graph0" class="graph" transform="scale(1 1) rotate(0) translate(4 294)">
<title>dependencies</title>
<polygon fill="#ffffff" stroke="transparent" points="-4,4 -4,-294 500,-294 500,4 -4,4"/>
<text text-anchor="start" x="227.0091" y="-42.4" font-family="sans-serif" font-weight="bold" font-size="14.00" fill="#000000">Legend</text>
<polygon fill="#ffffb3" stroke="transparent" points="14,-10 14,-30 34,-30 34,-10 14,-10"/>
<text text-anchor="start" x="37.629" y="-15.4" font-family="sans-serif" font-size="14.00" fill="#000000"> &#160;Declarations</text>
<polygon fill="#8dd3c7" stroke="transparent" points="127,-10 127,-30 147,-30 147,-10 127,-10"/>
<text text-anchor="start" x="150.7251" y="-15.4" font-family="sans-serif" font-size="14.00" fill="#000000"> &#160;Module</text>
<polygon fill="#80b1d3" stroke="transparent" points="213,-10 213,-30 233,-30 233,-10 213,-10"/>
<text text-anchor="start" x="236.7812" y="-15.4" font-family="sans-serif" font-size="14.00" fill="#000000"> &#160;Bootstrap</text>
<polygon fill="#fdb462" stroke="transparent" points="310,-10 310,-30 330,-30 330,-10 310,-10"/>
<text text-anchor="start" x="333.6732" y="-15.4" font-family="sans-serif" font-size="14.00" fill="#000000"> &#160;Providers</text>
<polygon fill="#fb8072" stroke="transparent" points="406,-10 406,-30 426,-30 426,-10 406,-10"/>
<text text-anchor="start" x="429.7258" y="-15.4" font-family="sans-serif" font-size="14.00" fill="#000000"> &#160;Exports</text>
<g id="clust1" class="cluster">
<title>cluster_AppModule</title>
<polygon fill="none" stroke="#000000" stroke-dasharray="1,5" points="101,-146 101,-274 339,-274 339,-146 101,-146"/>
</g>
<g id="clust3" class="cluster">
<title>cluster_AppModule_imports</title>
<polygon fill="none" stroke="#000000" points="109,-154 109,-206 331,-206 331,-154 109,-154"/>
</g>
<g id="clust7" class="cluster">
<title>cluster_ConfigModule</title>
<polygon fill="none" stroke="#000000" stroke-dasharray="1,5" points="347,-214 347,-282 479,-282 479,-214 347,-214"/>
</g>
<g id="clust10" class="cluster">
<title>cluster_ConfigModule_exports</title>
<polygon fill="none" stroke="#000000" points="355,-222 355,-274 471,-274 471,-222 355,-222"/>
</g>
<g id="clust19" class="cluster">
<title>cluster_TodoModule</title>
<polygon fill="none" stroke="#000000" stroke-dasharray="1,5" points="17,-70 17,-138 303,-138 303,-70 17,-70"/>
</g>
<g id="clust21" class="cluster">
<title>cluster_TodoModule_imports</title>
<polygon fill="none" stroke="#000000" points="169,-78 169,-130 295,-130 295,-78 169,-78"/>
</g>
<g id="clust24" class="cluster">
<title>cluster_TodoModule_providers</title>
<polygon fill="none" stroke="#000000" points="25,-78 25,-130 161,-130 161,-78 25,-78"/>
</g>
<!-- ConfigModule -->
<g id="node1" class="node">
<title>ConfigModule</title>
<polygon fill="#8dd3c7" stroke="#000000" points="323.4386,-198 320.4386,-202 299.4386,-202 296.4386,-198 224.5614,-198 224.5614,-162 323.4386,-162 323.4386,-198"/>
<text text-anchor="middle" x="274" y="-175.8" font-family="Times,serif" font-size="14.00" fill="#000000">ConfigModule</text>
</g>
<!-- AppModule -->
<g id="node3" class="node">
<title>AppModule</title>
<polygon fill="#8dd3c7" stroke="#000000" points="259.6571,-266 256.6571,-270 235.6571,-270 232.6571,-266 176.3429,-266 176.3429,-230 259.6571,-230 259.6571,-266"/>
<text text-anchor="middle" x="218" y="-243.8" font-family="Times,serif" font-size="14.00" fill="#000000">AppModule</text>
</g>
<!-- ConfigModule&#45;&gt;AppModule -->
<g id="edge1" class="edge">
<title>ConfigModule&#45;&gt;AppModule</title>
<path fill="none" stroke="#000000" d="M242.3047,-198.2228C242.3047,-198.2228 242.3047,-219.7269 242.3047,-219.7269"/>
<polygon fill="#000000" stroke="#000000" points="238.8048,-219.7269 242.3047,-229.7269 245.8048,-219.727 238.8048,-219.7269"/>
</g>
<!-- ConfigService  -->
<g id="node4" class="node">
<title>ConfigService </title>
<polygon fill="#fb8072" stroke="#000000" points="463.3661,-266 362.6339,-266 362.6339,-230 463.3661,-230 463.3661,-266"/>
<text text-anchor="middle" x="413" y="-243.8" font-family="Times,serif" font-size="14.00" fill="#000000">ConfigService </text>
</g>
<!-- ConfigModule&#45;&gt;ConfigService  -->
<g id="edge3" class="edge">
<title>ConfigModule&#45;&gt;ConfigService </title>
<path fill="none" stroke="#000000" stroke-dasharray="5,2" d="M291.5235,-198.2228C291.5235,-218.3652 291.5235,-248 291.5235,-248 291.5235,-248 352.5384,-248 352.5384,-248"/>
<polygon fill="#000000" stroke="#000000" points="352.5384,-251.5001 362.5384,-248 352.5383,-244.5001 352.5384,-251.5001"/>
</g>
<!-- TodoModule -->
<g id="node2" class="node">
<title>TodoModule</title>
<polygon fill="#8dd3c7" stroke="#000000" points="206.6025,-198 203.6025,-202 182.6025,-202 179.6025,-198 117.3975,-198 117.3975,-162 206.6025,-162 206.6025,-198"/>
<text text-anchor="middle" x="162" y="-175.8" font-family="Times,serif" font-size="14.00" fill="#000000">TodoModule</text>
</g>
<!-- TodoModule&#45;&gt;AppModule -->
<g id="edge2" class="edge">
<title>TodoModule&#45;&gt;AppModule</title>
<path fill="none" stroke="#000000" d="M191.3615,-198.2228C191.3615,-198.2228 191.3615,-219.7269 191.3615,-219.7269"/>
<polygon fill="#000000" stroke="#000000" points="187.8616,-219.7269 191.3615,-229.7269 194.8616,-219.727 187.8616,-219.7269"/>
</g>
<!-- DatabaseModule -->
<g id="node5" class="node">
<title>DatabaseModule</title>
<polygon fill="#8dd3c7" stroke="#000000" points="287.3501,-122 284.3501,-126 263.3501,-126 260.3501,-122 176.6499,-122 176.6499,-86 287.3501,-86 287.3501,-122"/>
<text text-anchor="middle" x="232" y="-99.8" font-family="Times,serif" font-size="14.00" fill="#000000">DatabaseModule</text>
</g>
<!-- DatabaseModule&#45;&gt;TodoModule -->
<g id="edge4" class="edge">
<title>DatabaseModule&#45;&gt;TodoModule</title>
<path fill="none" stroke="#000000" d="M191.5631,-122.0109C191.5631,-122.0109 191.5631,-151.855 191.5631,-151.855"/>
<polygon fill="#000000" stroke="#000000" points="188.0632,-151.8549 191.5631,-161.855 195.0632,-151.855 188.0632,-151.8549"/>
</g>
<!-- TodoService -->
<g id="node6" class="node">
<title>TodoService</title>
<ellipse fill="#fdb462" stroke="#000000" cx="93" cy="-104" rx="60.2537" ry="18"/>
<text text-anchor="middle" x="93" y="-99.8" font-family="Times,serif" font-size="14.00" fill="#000000">TodoService</text>
</g>
<!-- TodoService&#45;&gt;TodoModule -->
<g id="edge5" class="edge">
<title>TodoService&#45;&gt;TodoModule</title>
<path fill="none" stroke="#000000" d="M135.4128,-116.8924C135.4128,-116.8924 135.4128,-151.9077 135.4128,-151.9077"/>
<polygon fill="#000000" stroke="#000000" points="131.9129,-151.9077 135.4128,-161.9077 138.9129,-151.9078 131.9129,-151.9077"/>
</g>
</g>
</svg>
